PathFileType	4	(X/Y/Z)	C:/Users/opensim2020/Desktop/walking_exp_matlab/subject02_walking07_straight_01.trc																																																																																																																																																				
DataRate	CameraRate	NumFrames	NumMarkers	Units	OrigDataRate	OrigDataStartFrame	OrigNumFrames																																																																																																																																																
100	100	4	50	mm	100	714	176																																																																																																																																																
Frame#	Time	LFHD			RFHD			LBHD			RBHD			C7			T10			CLAV			STRN			RBAK			LSHO			LUPA			LELB			LFRM			LWRA			LWRB			LFIN			RSHO			RUPA			RELB			RFRM			RWRA			RWRB			RFIN			LASI			RASI			LPSI			RPSI			LTHI			LKNE			LTIB			LANK			LHEE			LTOE			RTHI			RKNE			RTIB			RANK			RHEE			RTOE			*39			*40			*41			*42			*43			*44			*45			*46			*47			*48			*49		
		X1	Y1	Z1	X2	Y2	Z2	X3	Y3	Z3	X4	Y4	Z4	X5	Y5	Z5	X6	Y6	Z6	X7	Y7	Z7	X8	Y8	Z8	X9	Y9	Z9	X10	Y10	Z10	X11	Y11	Z11	X12	Y12	Z12	X13	Y13	Z13	X14	Y14	Z14	X15	Y15	Z15	X16	Y16	Z16	X17	Y17	Z17	X18	Y18	Z18	X19	Y19	Z19	X20	Y20	Z20	X21	Y21	Z21	X22	Y22	Z22	X23	Y23	Z23	X24	Y24	Z24	X25	Y25	Z25	X26	Y26	Z26	X27	Y27	Z27	X28	Y28	Z28	X29	Y29	Z29	X30	Y30	Z30	X31	Y31	Z31	X32	Y32	Z32	X33	Y33	Z33	X34	Y34	Z34	X35	Y35	Z35	X36	Y36	Z36	X37	Y37	Z37	X38	Y38	Z38	X39	Y39	Z39	X40	Y40	Z40	X41	Y41	Z41	X42	Y42	Z42	X43	Y43	Z43	X44	Y44	Z44	X45	Y45	Z45	X46	Y46	Z46	X47	Y47	Z47	X48	Y48	Z48	X49	Y49	Z49	X50	Y50	Z50
																																																																																																																																																							
67	0.66	-375.4324	1721.51135	1390.43823	-374.43924	1705.92236	1533.9895	-496.01688	1632.12219	1383.17297	-507.80438	1613.96973	1525.0874	-541.6684	1499.75818	1465.72607	-605.49078	1229.50208	1477.68201	-404.54175	1429.11462	1444.05298	-358.96234	1255.00806	1461.63232	-599.40186	1335.03552	1543.1311	-490.46768	1466.26733	1281.61584	-558.05469	1278.55481	1208.80566	-602.4967	1146.54626	1203.18762	-643.77948	1024.12964	1182.19592	-630.35809	884.40277	1179.62683	-681.5083	906.71448	1170.22473	-689.27411	840.91028	1157.3363	-443.56174	1475.70325	1643.09412	-432.21872	1292.44299	1743.16821	-375.27271	1155.12903	1771.10632	-294.44312	1062.68347	1771.5874	-200.79143	974.61682	1729.91357	-231.35542	948.46844	1770.39978	-168.13387	915.99109	1761.2406	-371.4133	962.62592	1348.71191	-394.57846	943.96423	1607.30396	-587.31342	1007.92023	1414.27783	-599.9679	1009.82404	1527.54919	-357.78049	666.62695	1280.37036	-318.90329	470.83127	1313.66809	-310.10657	276.60623	1309.61951	-228.2151	66.59986	1336.69043	-253.33871	30.89945	1388.33264	-72.79097	75.23191	1331.38184	-545.81769	655.09216	1658.37549	-602.90247	451.85229	1620.82214	-710.49109	295.02838	1621.255	-794.06903	119.13647	1582.72852	-840.32727	75.16635	1525.18042	-661.38129	32.27226	1604.18042	-484.44583	1776.72119	1478.76074	2845.83105	1034.17212	-3357.20166	NaN	NaN	NaN	NaN	NaN	NaN	NaN	NaN	NaN	NaN	NaN	NaN	NaN	NaN	NaN	NaN	NaN	NaN	NaN	NaN	NaN	NaN	NaN	NaN	NaN	NaN	NaN
68	0.67	-366.04688	1720.9939	1388.09607	-365.0303	1705.31519	1531.70325	-486.37283	1631.19165	1380.71313	-498.10199	1612.95361	1522.62012	-531.77539	1498.59509	1463.06592	-594.58466	1228.18005	1474.98364	-394.22632	1428.49194	1441.54382	-347.89841	1254.66357	1459.21729	-589.39874	1334.05591	1540.51636	-480.02231	1465.42334	1278.99976	-546.55725	1276.81787	1206.1106	-589.53308	1144.59106	1200.9624	-629.9649	1021.91077	1180.24243	-615.48505	882.10535	1177.93005	-666.67883	904.00562	1168.46313	-673.54224	838.07758	1155.66382	-433.74539	1474.82349	1640.61316	-423.05341	1291.87805	1740.66565	-367.4314	1154.03296	1768.70471	-286.68588	1061.35193	1769.33984	-193.2151	973.21094	1727.48767	-223.95821	946.96722	1767.72534	-160.88504	914.19189	1758.40674	-359.53391	962.52142	1346.02185	-382.56921	943.26007	1604.81934	-575.50708	1006.76416	1411.29956	-588.19556	1008.67419	1524.53149	-345.91541	665.8158	1278.20142	-308.8515	469.67209	1311.3822	-302.34576	274.97821	1308.67493	-224.92827	65.20646	1337.31677	-250.45036	32.37577	1389.51672	-68.02193	65.14295	1330.01904	-535.97302	655.10773	1657.09985	-594.3064	452.2854	1620.63464	-705.04224	297.55316	1621.01184	-791.70874	123.06697	1583.26868	-838.05475	79.82271	1525.64246	-661.06677	32.31182	1604.41016	-475.38904	1775.7998	1476.20068	2845.81177	1034.15173	-3357.26025	NaN	NaN	NaN	NaN	NaN	NaN	NaN	NaN	NaN	NaN	NaN	NaN	NaN	NaN	NaN	NaN	NaN	NaN	NaN	NaN	NaN	NaN	NaN	NaN	NaN	NaN	NaN
69	0.68	-356.52487	1720.9436	1385.65039	-355.56076	1705.13147	1529.30908	-476.57318	1630.60254	1378.11914	-488.29108	1612.2113	1520.02905	-521.93622	1497.6377	1460.23108	-583.5036	1227.46997	1471.96057	-383.78467	1428.16003	1438.93591	-336.94559	1254.61719	1456.72791	-578.5119	1332.65955	1536.85144	-469.55032	1464.71179	1276.18616	-534.73877	1275.29419	1203.37402	-576.75659	1142.68896	1198.55176	-615.84119	1019.59814	1178.19678	-599.96002	879.95898	1176.38147	-651.26892	901.29767	1166.76392	-657.59039	835.24823	1154.11462	-424.20901	1474.28296	1637.86157	-414.30115	1291.00867	1737.89844	-359.72269	1152.87512	1766.18079	-279.49966	1059.71252	1766.50769	-186.1097	971.43341	1724.77197	-217.02274	945.18842	1764.97168	-154.13074	912.05981	1755.56396	-347.71771	962.78003	1343.39648	-370.34589	942.59515	1602.2406	-563.50488	1005.76257	1408.09192	-576.2373	1007.40759	1521.25928	-335.0264	665.9527	1276.03613	-299.58167	469.1658	1309.06897	-294.30154	274.29016	1308.87646	-220.77504	65.51257	1335.84521	-247.49068	34.31248	1388.53027	-62.99062	56.61351	1329.15088	-525.71869	655.04425	1655.70032	-585.32324	452.4393	1620.09363	-699.07483	300.31305	1620.73901	-788.99976	127.4868	1584.0658	-835.82697	85.42651	1526.43884	-660.67511	32.30339	1604.75354	-466.12903	1775.18311	1473.82898	2845.18042	1033.97913	-3360.2644	NaN	NaN	NaN	NaN	NaN	NaN	NaN	NaN	NaN	NaN	NaN	NaN	NaN	NaN	NaN	NaN	NaN	NaN	NaN	NaN	NaN	NaN	NaN	NaN	NaN	NaN	NaN
70	0.69	-346.93137	1721.33728	1383.26245	-346.10544	1705.33472	1526.89868	-466.58505	1630.64612	1375.42175	-478.53024	1611.97937	1517.28064	-512.12402	1497.10486	1457.15845	-572.44629	1226.97192	1469.09631	-373.50122	1428.16882	1436.23425	-326.16245	1254.89819	1454.0907	-568.1441	1332.19336	1533.84509	-458.99121	1464.10181	1273.15906	-521.99548	1273.50879	1200.92078	-563.47937	1140.79163	1196.09045	-601.85553	1017.11023	1175.63806	-584.0448	877.85132	1174.71277	-635.65942	898.67499	1165.08313	-641.43738	832.742	1152.04663	-414.57043	1473.90808	1635.43506	-405.55261	1290.25134	1735.33594	-352.16199	1151.72522	1763.54358	-272.1752	1058.28845	1764.19702	-179.39546	969.45056	1722.25769	-210.43732	943.34473	1762.29736	-147.61249	909.94421	1752.86108	-335.80179	963.28662	1340.67761	-357.90161	942.09125	1599.36694	-551.42096	1005.24341	1404.63843	-564.34119	1006.16327	1517.92883	-324.79654	667.0033	1273.53125	-289.83957	469.69196	1306.32312	-285.69757	275.20914	1308.46155	-215.83139	64.81358	1333.53967	-244.80775	35.99249	1386.89111	-58.14964	50.75047	1328.39404	-514.84943	655.18921	1654.23987	-575.41321	453.1748	1619.89124	-692.30511	303.45831	1620.52222	-785.60278	132.43941	1585.00159	-833.00201	91.88007	1527.33435	-660.20477	32.30804	1605.13672	-456.7493	1775.03296	1471.59082	2845.15625	1034.06665	-3360.24512	NaN	NaN	NaN	NaN	NaN	NaN	NaN	NaN	NaN	NaN	NaN	NaN	NaN	NaN	NaN	NaN	NaN	NaN	NaN	NaN	NaN	NaN	NaN	NaN	NaN	NaN	NaN
